<svg width="491" height="237" viewBox="0 0 491 237" fill="none" xmlns="http://www.w3.org/2000/svg">
<path d="M219.01 36.86L218.91 25.58C218.91 25.5038 218.895 25.4284 218.866 25.358C218.837 25.2877 218.794 25.2237 218.74 25.1699C218.686 25.116 218.622 25.0733 218.552 25.0441C218.482 25.015 218.406 25 218.33 25H200C199.667 25 199.5 25.1667 199.5 25.5V48.53C199.5 48.89 199.347 49.16 199.04 49.34L188.81 55.36C188.563 55.5059 188.359 55.7136 188.217 55.9626C188.075 56.2116 188 56.4933 188 56.78V74.47C188 74.6313 188.043 74.7897 188.124 74.929C188.205 75.0684 188.322 75.1836 188.462 75.263C188.603 75.3423 188.762 75.383 188.923 75.3807C189.084 75.3784 189.242 75.3333 189.38 75.25L266.29 29.09C266.467 28.9846 266.67 28.9306 266.876 28.9341C267.083 28.9377 267.285 28.9986 267.46 29.11C297.893 49.03 328.407 68.9933 359 89C359.693 89.4533 360.187 89.3167 360.48 88.59C360.493 88.5638 360.5 88.5329 360.5 88.5V69.82C360.5 69.4067 360.33 69.0867 359.99 68.86L267.62 7.54C267.227 7.27333 266.827 7.26666 266.42 7.52L219.45 37.11C219.157 37.2967 219.01 37.2133 219.01 36.86Z" stroke="#898B95" stroke-width="2"/>
<path d="M177.983 24.4699C177.983 24.4056 177.97 24.3419 177.946 24.2825C177.921 24.2231 177.885 24.1691 177.839 24.1237C177.794 24.0783 177.74 24.0423 177.68 24.0178C177.621 23.9932 177.557 23.9807 177.492 23.9808L155.473 24.0192C155.408 24.0193 155.345 24.0321 155.285 24.0568C155.226 24.0816 155.172 24.1177 155.126 24.1633C155.081 24.2089 155.045 24.263 155.02 24.3225C154.996 24.382 154.983 24.4458 154.983 24.5101L155.017 43.5301C155.017 43.5945 155.03 43.6581 155.054 43.7176C155.079 43.777 155.115 43.8309 155.161 43.8763C155.206 43.9217 155.26 43.9577 155.32 43.9822C155.379 44.0068 155.443 44.0193 155.508 44.0192L177.527 43.9808C177.592 43.9807 177.655 43.9679 177.715 43.9432C177.774 43.9185 177.828 43.8823 177.874 43.8367C177.919 43.7911 177.955 43.737 177.98 43.6775C178.004 43.618 178.017 43.5543 178.017 43.4899L177.983 24.4699Z" stroke="#898B95" stroke-width="2"/>
<path d="M176.99 99.7C176.657 86.4667 176.6 73.2333 176.82 60C176.87 57.12 174.04 56.03 171.4 56.02C161.987 55.9867 152.77 55.9833 143.75 56.01C143.152 56.0126 142.58 56.2519 142.158 56.6755C141.737 57.099 141.5 57.6723 141.5 58.27V67.67C141.5 68.2548 141.727 68.8167 142.134 69.2367C142.541 69.6567 143.095 69.9018 143.68 69.92L152.68 70.22C153.168 70.2353 153.632 70.4371 153.974 70.7835C154.317 71.1298 154.512 71.5941 154.52 72.08C154.873 91.6067 154.82 111.247 154.36 131C154.32 132.753 155.05 133.823 156.55 134.21C156.718 134.254 156.892 134.265 157.062 134.241C157.232 134.217 157.394 134.159 157.54 134.07L265.44 69.17C265.751 68.9816 266.109 68.8863 266.474 68.8952C266.839 68.904 267.195 69.0167 267.5 69.22L357.4 128.65C357.702 128.849 358.051 128.962 358.412 128.978C358.772 128.994 359.131 128.912 359.449 128.74C359.766 128.569 360.032 128.315 360.217 128.005C360.402 127.695 360.5 127.341 360.5 126.98V111.47C360.5 111.178 360.427 110.89 360.287 110.632C360.147 110.373 359.946 110.153 359.7 109.99L266.87 48.5C266.696 48.3859 266.495 48.3227 266.288 48.3173C266.081 48.312 265.877 48.3649 265.7 48.47L177.49 99.98C177.17 100.167 177.003 100.073 176.99 99.7Z" stroke="#898B95" stroke-width="2"/>
<path d="M263.988 96.5069C263.988 96.4386 263.974 96.371 263.948 96.308C263.922 96.2449 263.883 96.1877 263.835 96.1395C263.787 96.0913 263.729 96.0531 263.666 96.027C263.603 96.001 263.535 95.9877 263.467 95.9878L249.507 96.0122C249.439 96.0123 249.371 96.0259 249.308 96.0521C249.245 96.0784 249.188 96.1168 249.139 96.1651C249.091 96.2135 249.053 96.2709 249.027 96.334C249.001 96.3972 248.988 96.4648 248.988 96.5331L249.012 110.493C249.012 110.561 249.026 110.629 249.052 110.692C249.078 110.755 249.117 110.812 249.165 110.861C249.214 110.909 249.271 110.947 249.334 110.973C249.397 110.999 249.465 111.012 249.533 111.012L263.493 110.988C263.561 110.988 263.629 110.974 263.692 110.948C263.755 110.922 263.812 110.883 263.861 110.835C263.909 110.786 263.947 110.729 263.973 110.666C263.999 110.603 264.012 110.535 264.012 110.467L263.988 96.5069Z" stroke="#898B95" stroke-width="2"/>
<path d="M283.988 96.4069C283.987 96.2955 283.943 96.1888 283.864 96.1102C283.785 96.0316 283.678 95.9875 283.567 95.9877L269.407 96.0124C269.296 96.0126 269.189 96.057 269.11 96.1359C269.032 96.2148 268.988 96.3217 268.988 96.4331L269.012 110.593C269.013 110.704 269.057 110.811 269.136 110.89C269.215 110.968 269.322 111.012 269.433 111.012L283.593 110.988C283.704 110.987 283.811 110.943 283.89 110.864C283.968 110.785 284.012 110.678 284.012 110.567L283.988 96.4069Z" stroke="#898B95" stroke-width="2"/>
<path d="M264.012 115.463C264.012 115.404 264.001 115.345 263.978 115.291C263.956 115.236 263.923 115.187 263.881 115.145C263.839 115.103 263.79 115.07 263.735 115.047C263.681 115.024 263.622 115.012 263.563 115.012L249.463 114.988C249.404 114.988 249.345 114.999 249.291 115.022C249.236 115.044 249.187 115.077 249.145 115.119C249.103 115.161 249.07 115.21 249.047 115.265C249.024 115.319 249.012 115.378 249.012 115.437L248.988 129.537C248.988 129.596 248.999 129.655 249.022 129.709C249.044 129.764 249.077 129.813 249.119 129.855C249.161 129.897 249.21 129.93 249.265 129.953C249.319 129.976 249.378 129.988 249.437 129.988L263.537 130.012C263.596 130.012 263.655 130.001 263.709 129.978C263.764 129.956 263.813 129.923 263.855 129.881C263.897 129.839 263.93 129.79 263.953 129.735C263.976 129.681 263.988 129.622 263.988 129.563L264.012 115.463Z" stroke="#898B95" stroke-width="2"/>
<path d="M284.012 115.383C284.013 115.285 283.974 115.191 283.904 115.121C283.835 115.052 283.741 115.013 283.643 115.012L269.383 114.988C269.285 114.987 269.191 115.026 269.121 115.096C269.052 115.165 269.013 115.259 269.013 115.357L268.988 129.617C268.987 129.715 269.026 129.809 269.096 129.879C269.165 129.948 269.259 129.987 269.357 129.988L283.617 130.012C283.715 130.013 283.809 129.974 283.879 129.904C283.948 129.835 283.987 129.741 283.987 129.643L284.012 115.383Z" stroke="#898B95" stroke-width="2"/>
<path d="M54.43 133.97C54.43 131.509 53.4523 129.148 51.7119 127.408C49.9716 125.668 47.6112 124.69 45.15 124.69C42.6888 124.69 40.3284 125.668 38.588 127.408C36.8477 129.148 35.87 131.509 35.87 133.97C35.87 136.431 36.8477 138.792 38.588 140.532C40.3284 142.272 42.6888 143.25 45.15 143.25C47.6112 143.25 49.9716 142.272 51.7119 140.532C53.4523 138.792 54.43 136.431 54.43 133.97Z" stroke="#898B95" stroke-width="2"/>
<path d="M194.25 155.3C182.73 144.53 163.94 142.94 149.87 148.68C130.69 156.51 123.56 180.36 131.78 197.99C138.12 211.59 150.11 218.15 165 218.42C179.527 218.687 190.647 213.093 198.36 201.64C208.01 187.32 206.96 167.17 194.25 155.3Z" stroke="#898B95" stroke-width="2"/>
<path d="M399.81 213.42C397.04 213.21 393.26 211.2 393.26 207.94C393.26 193.547 393.25 179.157 393.23 164.77C393.23 163.16 392.67 160.82 393.33 158.61C393.448 158.22 393.688 157.878 394.014 157.635C394.339 157.392 394.734 157.26 395.14 157.26C400.79 157.23 411.38 154.78 412.18 163.04C412.26 163.907 412.617 164.487 413.25 164.78C413.479 164.885 413.729 164.934 413.981 164.922C414.232 164.91 414.477 164.838 414.695 164.711C414.912 164.585 415.096 164.408 415.231 164.195C415.366 163.983 415.448 163.741 415.47 163.49C415.897 158.503 416.277 153.593 416.61 148.76C416.92 144.14 410.38 146.97 408 146.99C401.4 147.043 385.34 146.983 359.82 146.81C357.84 146.797 356.027 146.447 354.38 145.76C354.099 145.642 353.793 145.593 353.489 145.617C353.184 145.641 352.89 145.738 352.63 145.899C352.37 146.061 352.151 146.282 351.993 146.545C351.835 146.807 351.741 147.104 351.72 147.41L350.62 163.5C350.596 163.719 350.615 163.941 350.676 164.153C350.738 164.365 350.84 164.563 350.978 164.735C351.116 164.907 351.287 165.051 351.48 165.157C351.673 165.263 351.886 165.331 352.105 165.355C352.324 165.379 352.546 165.36 352.758 165.299C352.97 165.237 353.168 165.135 353.34 164.997C353.512 164.859 353.656 164.688 353.762 164.495C353.868 164.302 353.936 164.089 353.96 163.87C355.27 155.29 365.44 157.26 371.32 157.25C371.618 157.249 371.913 157.307 372.188 157.421C372.463 157.536 372.712 157.705 372.921 157.917C373.13 158.13 373.294 158.382 373.404 158.659C373.514 158.936 373.567 159.232 373.56 159.53C373.267 174.563 373.167 189.533 373.26 204.44C373.29 209.16 372.51 212.68 367.41 213.35C366.577 213.463 366.007 213.647 365.7 213.9C365.047 214.453 365.003 215.18 365.57 216.08C365.693 216.277 365.863 216.439 366.066 216.553C366.269 216.666 366.497 216.727 366.73 216.73C377.57 216.95 388.47 216.93 399.43 216.67C400.07 216.657 400.533 216.517 400.82 216.25C401.327 215.79 401.413 215.153 401.08 214.34C400.975 214.082 400.801 213.859 400.576 213.696C400.351 213.534 400.086 213.438 399.81 213.42Z" stroke="#898B95" stroke-width="2"/>
<path d="M93.04 206.24L123.09 149.88C123.194 149.686 123.256 149.473 123.273 149.254C123.29 149.034 123.262 148.814 123.189 148.605C123.117 148.397 123.003 148.206 122.853 148.043C122.703 147.88 122.522 147.75 122.32 147.66C121.347 147.233 120.073 147.027 118.5 147.04C103.98 147.153 89.3867 147.04 74.72 146.7C74.3029 146.691 73.8968 146.832 73.5756 147.096C73.2543 147.361 73.0394 147.731 72.97 148.14C72.43 151.23 70.01 161.39 70.88 163.94C70.9793 164.24 71.1699 164.501 71.4251 164.686C71.6803 164.872 71.9873 164.973 72.3028 164.975C72.6184 164.977 72.9268 164.881 73.1846 164.699C73.4423 164.516 73.6366 164.258 73.74 163.96C74.82 160.88 75.85 157.23 79.83 156.86C85.1034 156.36 90.4434 156.153 95.85 156.24C96.1076 156.244 96.36 156.314 96.5827 156.443C96.8054 156.573 96.9911 156.757 97.1217 156.979C97.2523 157.201 97.3235 157.453 97.3285 157.711C97.3335 157.969 97.272 158.223 97.15 158.45C87.9833 175.563 78.7767 192.763 69.53 210.05C68.33 212.29 65.84 216.8 70.56 216.79C86.6334 216.75 102.52 216.847 118.22 217.08C119.271 217.093 120.289 216.712 121.074 216.013C121.858 215.313 122.353 214.346 122.46 213.3L123.98 198.24C123.994 198.093 123.957 197.947 123.877 197.827C123.796 197.706 123.677 197.619 123.54 197.58L121.47 197C121.375 196.973 121.276 196.965 121.179 196.978C121.081 196.99 120.987 197.022 120.902 197.071C120.817 197.121 120.743 197.187 120.684 197.266C120.625 197.344 120.583 197.434 120.56 197.53C119.52 201.66 118.14 206.21 113.94 206.4C107.08 206.7 100.21 206.813 93.33 206.74C93.2724 206.741 93.2157 206.727 93.1655 206.698C93.1154 206.669 93.0736 206.628 93.0443 206.577C93.015 206.527 92.9992 206.469 92.9984 206.41C92.9977 206.351 93.012 206.292 93.04 206.24Z" stroke="#898B95" stroke-width="2"/>
<path d="M281.29 217.05L314.22 216.86C314.513 216.857 314.8 216.777 315.053 216.628C315.305 216.478 315.514 216.265 315.657 216.01C315.801 215.755 315.876 215.466 315.872 215.173C315.869 214.879 315.789 214.592 315.64 214.34C314.88 213.07 313.33 213.36 312.4 212.95C309.72 211.777 308.37 209.603 308.35 206.43C308.243 190.257 308.22 174.08 308.28 157.9C308.29 155.71 308.87 153.98 311.27 153.91C319.717 153.643 324.273 157.77 324.94 166.29C325.77 176.85 319.59 179.04 311.85 183.18C311.559 183.338 311.326 183.582 311.182 183.88C311.037 184.177 310.99 184.512 311.046 184.838C311.103 185.164 311.26 185.464 311.495 185.695C311.731 185.927 312.033 186.079 312.36 186.13C313.94 186.37 315.41 187.81 316.01 189.44C323.56 209.95 334.32 221.15 358 217C359.113 216.8 359.7 216.16 359.76 215.08C359.779 214.753 359.684 214.429 359.491 214.164C359.297 213.9 359.018 213.711 358.7 213.63C346.33 210.4 339.41 195.03 332.95 182.79C332.763 182.43 332.833 182.133 333.16 181.9C338.04 178.43 342.41 175.19 344.26 169.17C348.31 156.02 337.58 148.71 325.94 147.49C311.66 145.99 297.37 146.8 283.07 147.02C282.323 147.033 281.79 147.12 281.47 147.28C280.73 147.64 280.547 148.333 280.92 149.36C281.044 149.707 281.278 150.004 281.586 150.207C281.894 150.411 282.26 150.51 282.63 150.49C287.13 150.21 288.48 153.08 288.62 157.2C289.06 170.48 289.063 186.937 288.63 206.57C288.51 212.11 286.5 212.83 281.52 213.42C280.13 213.58 279.38 214.05 279.56 215.54C279.687 216.553 280.263 217.057 281.29 217.05Z" stroke="#898B95" stroke-width="2"/>
<path d="M61.82 147.07C50.8 146.89 39.8 146.927 28.82 147.18C27.8267 147.2 27.2433 147.613 27.07 148.42C26.9913 148.78 27.0558 149.157 27.2499 149.471C27.444 149.784 27.7524 150.01 28.11 150.1C31.32 150.93 35.03 151.26 35.16 155.44C35.3733 162.913 35.4433 179.767 35.37 206C35.3567 210.793 33.06 213.263 28.48 213.41C28.3158 213.417 28.1549 213.456 28.007 213.527C27.8592 213.597 27.7275 213.697 27.62 213.82C27.12 214.38 26.9833 214.987 27.21 215.64C27.3218 215.954 27.5263 216.227 27.7961 216.422C28.0659 216.617 28.3882 216.724 28.72 216.73C39.4667 216.917 50.31 216.923 61.25 216.75C62.7233 216.73 63.2833 215.953 62.93 214.42C62.8552 214.104 62.6769 213.824 62.4243 213.624C62.1717 213.424 61.8599 213.317 61.54 213.32C55.52 213.37 54.8 208.98 54.78 203.8C54.68 180.153 54.6867 164.41 54.8 156.57C54.84 153.603 56.23 151.66 58.97 150.74C60.23 150.32 62.64 150.83 63.15 149.13C63.3567 148.417 63.0667 147.78 62.28 147.22C62.1429 147.129 61.9837 147.077 61.82 147.07Z" stroke="#898B95" stroke-width="2"/>
<path d="M249.64 211.52C249.723 211.733 249.754 211.962 249.731 212.189C249.707 212.417 249.629 212.635 249.504 212.826C249.378 213.017 249.209 213.175 249.01 213.287C248.811 213.399 248.588 213.462 248.36 213.47L245.85 213.56C245.47 213.573 245.177 213.74 244.97 214.06C244.41 214.933 244.54 215.737 245.36 216.47C245.733 216.811 246.224 217.004 246.74 217.01C256.353 217.03 266.087 216.977 275.94 216.85C276.793 216.843 277.34 216.39 277.58 215.49C277.644 215.251 277.657 215.002 277.62 214.757C277.583 214.513 277.496 214.279 277.365 214.071C277.233 213.862 277.06 213.683 276.856 213.545C276.652 213.408 276.422 213.314 276.18 213.27C272.34 212.56 270.28 210 268.77 206.28C261.803 189.087 254.84 171.887 247.88 154.68C245.76 149.45 244.82 145.88 238.59 147.17C236.13 147.677 234.5 148.947 233.7 150.98C221.94 180.78 214.207 199.94 210.5 208.46C209.327 211.16 207.043 212.823 203.65 213.45C202.863 213.597 202.357 213.773 202.13 213.98C201.657 214.407 201.587 215.037 201.92 215.87C202.009 216.095 202.162 216.29 202.361 216.43C202.56 216.571 202.796 216.65 203.04 216.66C210.573 216.967 218.04 216.983 225.44 216.71C226.167 216.683 226.68 216.557 226.98 216.33C227.5 215.937 227.65 215.297 227.43 214.41C227.375 214.189 227.249 213.992 227.07 213.849C226.891 213.706 226.67 213.626 226.44 213.62L219.36 213.46C219.12 213.456 218.885 213.391 218.676 213.273C218.467 213.155 218.29 212.986 218.162 212.781C218.034 212.577 217.959 212.344 217.943 212.103C217.927 211.862 217.97 211.62 218.07 211.4L223.18 200.21C223.251 200.052 223.366 199.918 223.512 199.824C223.657 199.73 223.827 199.68 224 199.68L244.02 199.76C244.68 199.767 245.13 200.077 245.37 200.69L249.64 211.52Z" stroke="#898B95" stroke-width="2"/>
<path d="M422.27 217.01L470.19 216.86C470.888 216.856 471.562 216.608 472.094 216.158C472.626 215.708 472.982 215.086 473.1 214.4C473.807 210.207 474.463 205.827 475.07 201.26C475.203 200.247 474.88 199.403 474.1 198.73C473.92 198.576 473.706 198.466 473.475 198.41C473.244 198.355 473.004 198.355 472.774 198.411C472.544 198.466 472.331 198.576 472.153 198.731C471.975 198.886 471.837 199.081 471.75 199.3C470.24 203.09 468.58 206.72 463.5 206.74C458.947 206.76 454.473 206.76 450.08 206.74C449.836 206.739 449.594 206.689 449.369 206.595C449.144 206.5 448.939 206.362 448.768 206.188C448.596 206.014 448.46 205.809 448.368 205.583C448.275 205.356 448.229 205.114 448.23 204.87L448.35 184.13C448.353 183.729 448.499 183.341 448.763 183.037C449.027 182.733 449.391 182.532 449.79 182.47C455.617 181.583 460.543 183.167 464.57 187.22C464.77 187.42 465.025 187.555 465.302 187.61C465.579 187.665 465.866 187.637 466.127 187.529C466.388 187.421 466.611 187.238 466.768 187.003C466.925 186.769 467.01 186.492 467.01 186.21L466.97 170.01C466.967 169.665 466.838 169.332 466.609 169.072C466.38 168.813 466.065 168.645 465.723 168.6C465.381 168.555 465.035 168.635 464.75 168.827C464.464 169.018 464.258 169.307 464.17 169.64C462.87 174.52 454.98 174.41 451.16 173.94C447.41 173.47 448.36 165.45 448.15 162.63C447.88 159.11 448.21 155.79 452.51 155.96C457 156.14 465.69 154.79 466.28 161.18C466.295 161.354 466.36 161.52 466.466 161.66C466.572 161.8 466.715 161.907 466.88 161.97L467.68 162.27C467.855 162.337 468.043 162.363 468.229 162.345C468.415 162.328 468.595 162.267 468.754 162.168C468.913 162.07 469.047 161.935 469.145 161.776C469.243 161.616 469.303 161.436 469.32 161.25L470.43 149.33C470.458 149.035 470.424 148.737 470.33 148.456C470.236 148.174 470.084 147.916 469.885 147.697C469.685 147.477 469.442 147.302 469.171 147.182C468.9 147.062 468.607 147 468.31 147H422.59C422.182 146.999 421.785 147.136 421.462 147.387C421.14 147.639 420.91 147.992 420.81 148.39C420.583 149.29 420.87 149.91 421.67 150.25C421.903 150.35 422.48 150.437 423.4 150.51C427.33 150.83 428.58 153.54 428.58 157.3C428.607 173.7 428.63 190.113 428.65 206.54C428.65 210.98 426.42 213.4 422.03 213.41C421.88 213.413 421.733 213.45 421.6 213.518C421.466 213.585 421.35 213.682 421.26 213.8C420.393 214.933 420.56 215.947 421.76 216.84C421.909 216.951 422.088 217.01 422.27 217.01Z" stroke="#898B95" stroke-width="2"/>
<path d="M215.5 41.82V29.02C215.5 28.6933 215.337 28.53 215.01 28.53L203.53 28.44C203.177 28.44 203 28.6167 203 28.97V50.47C203 50.8233 202.847 51.09 202.54 51.27L191.94 57.5C191.806 57.5788 191.695 57.6922 191.617 57.8291C191.54 57.9659 191.5 58.1214 191.5 58.28V69.26C191.5 69.7133 191.693 69.8233 192.08 69.59L266.15 25.19C266.39 25.0463 266.665 24.973 266.944 24.9783C267.224 24.9836 267.496 25.0673 267.73 25.22L356.56 83.4C357.02 83.7 357.25 83.5733 357.25 83.02V71.8C357.25 71.5784 357.195 71.3603 357.09 71.165C356.985 70.9697 356.834 70.8031 356.65 70.68L267.46 11.51C267.133 11.2967 266.803 11.2933 266.47 11.5L217.02 42.66C216.87 42.7551 216.697 42.808 216.52 42.8134C216.342 42.8187 216.167 42.7762 216.011 42.6903C215.856 42.6044 215.726 42.4783 215.636 42.3252C215.546 42.1721 215.499 41.9976 215.5 41.82Z" stroke="#F78E91" stroke-width="2"/>
<path d="M260.986 99.5843C260.986 99.5055 260.97 99.4275 260.94 99.3548C260.91 99.2822 260.865 99.2162 260.809 99.1606C260.753 99.1051 260.687 99.0612 260.614 99.0313C260.541 99.0014 260.463 98.9861 260.384 98.9864L252.584 99.0136C252.505 99.0139 252.428 99.0297 252.355 99.0601C252.282 99.0905 252.216 99.1349 252.161 99.1908C252.105 99.2467 252.061 99.313 252.031 99.3859C252.001 99.4588 251.986 99.5369 251.986 99.6157L252.014 107.416C252.014 107.494 252.03 107.572 252.06 107.645C252.091 107.718 252.135 107.784 252.191 107.839C252.247 107.895 252.313 107.939 252.386 107.969C252.459 107.999 252.537 108.014 252.616 108.014L260.416 107.986C260.495 107.986 260.572 107.97 260.645 107.94C260.718 107.91 260.784 107.865 260.839 107.809C260.895 107.753 260.939 107.687 260.969 107.614C260.999 107.541 261.014 107.463 261.014 107.384L260.986 99.5843Z" stroke="#F78E91" stroke-width="2"/>
<path d="M280.986 99.5843C280.986 99.5055 280.97 99.4275 280.94 99.3548C280.91 99.2822 280.865 99.2162 280.809 99.1606C280.753 99.1051 280.687 99.0612 280.614 99.0313C280.541 99.0014 280.463 98.9861 280.384 98.9864L272.584 99.0136C272.505 99.0139 272.428 99.0297 272.355 99.0601C272.282 99.0905 272.216 99.1349 272.161 99.1908C272.105 99.2467 272.061 99.313 272.031 99.3859C272.001 99.4588 271.986 99.5369 271.986 99.6157L272.014 107.416C272.014 107.494 272.03 107.572 272.06 107.645C272.091 107.718 272.135 107.784 272.191 107.839C272.247 107.895 272.313 107.939 272.386 107.969C272.459 107.999 272.537 108.014 272.616 108.014L280.416 107.986C280.495 107.986 280.572 107.97 280.645 107.94C280.718 107.91 280.784 107.865 280.839 107.809C280.895 107.753 280.939 107.687 280.969 107.614C280.999 107.541 281.014 107.463 281.014 107.384L280.986 99.5843Z" stroke="#F78E91" stroke-width="2"/>
<path d="M260.986 118.584C260.986 118.506 260.97 118.428 260.94 118.355C260.91 118.282 260.865 118.216 260.809 118.161C260.753 118.105 260.687 118.061 260.614 118.031C260.541 118.001 260.463 117.986 260.384 117.986L252.584 118.014C252.505 118.014 252.428 118.03 252.355 118.06C252.282 118.09 252.216 118.135 252.161 118.191C252.105 118.247 252.061 118.313 252.031 118.386C252.001 118.459 251.986 118.537 251.986 118.616L252.014 126.416C252.014 126.494 252.03 126.572 252.06 126.645C252.091 126.718 252.135 126.784 252.191 126.839C252.247 126.895 252.313 126.939 252.386 126.969C252.459 126.999 252.537 127.014 252.616 127.014L260.416 126.986C260.495 126.986 260.572 126.97 260.645 126.94C260.718 126.91 260.784 126.865 260.839 126.809C260.895 126.753 260.939 126.687 260.969 126.614C260.999 126.541 261.014 126.463 261.014 126.384L260.986 118.584Z" stroke="#F78E91" stroke-width="2"/>
<path d="M280.986 118.584C280.986 118.506 280.97 118.428 280.94 118.355C280.91 118.282 280.865 118.216 280.809 118.161C280.753 118.105 280.687 118.061 280.614 118.031C280.541 118.001 280.463 117.986 280.384 117.986L272.584 118.014C272.505 118.014 272.428 118.03 272.355 118.06C272.282 118.09 272.216 118.135 272.161 118.191C272.105 118.247 272.061 118.313 272.031 118.386C272.001 118.459 271.986 118.537 271.986 118.616L272.014 126.416C272.014 126.494 272.03 126.572 272.06 126.645C272.091 126.718 272.135 126.784 272.191 126.839C272.247 126.895 272.313 126.939 272.386 126.969C272.459 126.999 272.537 127.014 272.616 127.014L280.416 126.986C280.495 126.986 280.572 126.97 280.645 126.94C280.718 126.91 280.784 126.865 280.839 126.809C280.895 126.753 280.939 126.687 280.969 126.614C280.999 126.541 281.014 126.463 281.014 126.384L280.986 118.584Z" stroke="#F78E91" stroke-width="2"/>
<path d="M172.81 155.94C162.94 147.91 153.59 157.7 151.73 167.24C149.48 178.75 149.46 199.65 159.76 207.59C162.693 209.85 165.713 210.823 168.82 210.51C182.86 209.11 183.13 185.45 181.74 175.94C180.6 168.05 178.74 160.76 172.81 155.94Z" stroke="#898B95" stroke-width="2"/>
<path d="M228.34 188.59C228.231 188.825 228.182 189.084 228.197 189.342C228.212 189.601 228.291 189.852 228.426 190.073C228.562 190.294 228.75 190.477 228.974 190.608C229.198 190.738 229.451 190.811 229.71 190.82L239.47 191.18C239.729 191.19 239.986 191.136 240.218 191.022C240.451 190.909 240.652 190.74 240.803 190.53C240.954 190.32 241.052 190.076 241.086 189.82C241.12 189.563 241.091 189.302 241 189.06L236.54 177.25C236.431 176.961 236.239 176.711 235.988 176.531C235.738 176.351 235.44 176.249 235.131 176.237C234.823 176.225 234.518 176.305 234.255 176.465C233.991 176.626 233.781 176.861 233.65 177.14L228.34 188.59Z" stroke="#898B95" stroke-width="2"/>
<path d="M219.45 37.11L266.42 7.52C266.827 7.26666 267.227 7.27333 267.62 7.54L359.99 68.86C360.33 69.0867 360.5 69.4067 360.5 69.82V88.5C360.5 88.5329 360.493 88.5638 360.48 88.59C360.187 89.3167 359.693 89.4533 359 89C328.407 68.9933 297.893 49.03 267.46 29.11C267.285 28.9986 267.083 28.9377 266.876 28.9341C266.67 28.9306 266.467 28.9846 266.29 29.09L189.38 75.25C189.242 75.3333 189.084 75.3784 188.923 75.3807C188.762 75.383 188.603 75.3423 188.462 75.263C188.322 75.1836 188.205 75.0684 188.124 74.929C188.043 74.7897 188 74.6313 188 74.47V56.78C188 56.4933 188.075 56.2116 188.217 55.9626C188.359 55.7136 188.563 55.5059 188.81 55.36L199.04 49.34C199.347 49.16 199.5 48.89 199.5 48.53V25.5C199.5 25.1667 199.667 25 200 25H218.33C218.406 25 218.482 25.015 218.552 25.0441C218.622 25.0733 218.686 25.116 218.74 25.1699C218.794 25.2237 218.837 25.2877 218.866 25.358C218.895 25.4284 218.91 25.5038 218.91 25.58L219.01 36.86C219.01 37.2133 219.157 37.2967 219.45 37.11ZM215.5 41.82V29.02C215.5 28.6933 215.337 28.53 215.01 28.53L203.53 28.44C203.177 28.44 203 28.6167 203 28.97V50.47C203 50.8233 202.847 51.09 202.54 51.27L191.94 57.5C191.806 57.5788 191.695 57.6922 191.617 57.8291C191.54 57.9659 191.5 58.1214 191.5 58.28V69.26C191.5 69.7133 191.693 69.8233 192.08 69.59L266.15 25.19C266.39 25.0463 266.665 24.973 266.944 24.9783C267.224 24.9836 267.496 25.0673 267.73 25.22L356.56 83.4C357.02 83.7 357.25 83.5733 357.25 83.02V71.8C357.25 71.5784 357.195 71.3603 357.09 71.165C356.985 70.9697 356.834 70.8031 356.65 70.68L267.46 11.51C267.133 11.2967 266.803 11.2933 266.47 11.5L217.02 42.66C216.87 42.7551 216.697 42.808 216.52 42.8134C216.342 42.8187 216.167 42.7762 216.011 42.6903C215.856 42.6044 215.726 42.4783 215.636 42.3252C215.546 42.1721 215.499 41.9976 215.5 41.82Z" fill="white"/>
<path d="M215.5 41.82C215.499 41.9976 215.546 42.1721 215.636 42.3252C215.726 42.4783 215.856 42.6044 216.011 42.6903C216.167 42.7762 216.342 42.8187 216.52 42.8134C216.697 42.808 216.87 42.7551 217.02 42.66L266.47 11.5C266.803 11.2933 267.133 11.2967 267.46 11.51L356.65 70.68C356.834 70.8031 356.985 70.9697 357.09 71.165C357.195 71.3603 357.25 71.5784 357.25 71.8V83.02C357.25 83.5733 357.02 83.7 356.56 83.4L267.73 25.22C267.496 25.0673 267.224 24.9836 266.944 24.9783C266.665 24.973 266.39 25.0463 266.15 25.19L192.08 69.59C191.693 69.8233 191.5 69.7133 191.5 69.26V58.28C191.5 58.1214 191.54 57.9659 191.617 57.8291C191.695 57.6922 191.806 57.5788 191.94 57.5L202.54 51.27C202.847 51.09 203 50.8233 203 50.47V28.97C203 28.6167 203.177 28.44 203.53 28.44L215.01 28.53C215.337 28.53 215.5 28.6933 215.5 29.02V41.82Z" fill="#EE1D23"/>
<path d="M177.493 23.9808L155.473 24.0192C155.202 24.0197 154.983 24.2395 154.983 24.5101L155.017 43.5301C155.017 43.8007 155.237 44.0197 155.507 44.0192L177.527 43.9808C177.798 43.9803 178.017 43.7605 178.017 43.4899L177.983 24.4699C177.983 24.1993 177.763 23.9803 177.493 23.9808Z" fill="white"/>
<path d="M177.49 99.98L265.7 48.47C265.877 48.3649 266.081 48.312 266.288 48.3173C266.495 48.3227 266.696 48.3859 266.87 48.5L359.7 109.99C359.946 110.153 360.147 110.373 360.287 110.632C360.427 110.89 360.5 111.178 360.5 111.47V126.98C360.5 127.341 360.402 127.695 360.217 128.005C360.032 128.315 359.766 128.569 359.449 128.74C359.131 128.912 358.772 128.994 358.412 128.978C358.051 128.962 357.702 128.849 357.4 128.65L267.5 69.22C267.195 69.0167 266.839 68.904 266.474 68.8952C266.109 68.8863 265.751 68.9816 265.44 69.17L157.54 134.07C157.394 134.159 157.232 134.217 157.062 134.241C156.892 134.265 156.718 134.254 156.55 134.21C155.05 133.823 154.32 132.753 154.36 131C154.82 111.247 154.873 91.6067 154.52 72.08C154.512 71.5941 154.317 71.1298 153.974 70.7835C153.632 70.4371 153.168 70.2353 152.68 70.22L143.68 69.92C143.095 69.9018 142.541 69.6567 142.134 69.2367C141.727 68.8167 141.5 68.2548 141.5 67.67V58.27C141.5 57.6723 141.737 57.099 142.158 56.6755C142.58 56.2519 143.152 56.0126 143.75 56.01C152.77 55.9833 161.987 55.9867 171.4 56.02C174.04 56.03 176.87 57.12 176.82 60C176.6 73.2333 176.657 86.4667 176.99 99.7C177.003 100.073 177.17 100.167 177.49 99.98Z" fill="white"/>
<path d="M264.012 110.467C264.012 110.535 263.999 110.603 263.973 110.666C263.947 110.729 263.909 110.786 263.861 110.835C263.812 110.883 263.755 110.922 263.692 110.948C263.629 110.974 263.561 110.988 263.493 110.988L249.533 111.012C249.465 111.012 249.397 110.999 249.334 110.973C249.271 110.947 249.214 110.909 249.165 110.861C249.117 110.812 249.078 110.755 249.052 110.692C249.026 110.629 249.012 110.561 249.012 110.493L248.988 96.5331C248.988 96.4648 249.001 96.3972 249.027 96.334C249.053 96.2709 249.091 96.2135 249.139 96.1651C249.188 96.1168 249.245 96.0784 249.308 96.0521C249.371 96.0259 249.439 96.0123 249.507 96.0122L263.467 95.9878C263.535 95.9877 263.603 96.001 263.666 96.027C263.729 96.0531 263.787 96.0913 263.835 96.1395C263.883 96.1877 263.922 96.2449 263.948 96.308C263.974 96.371 263.988 96.4386 263.988 96.5069L264.012 110.467ZM260.986 99.5843C260.986 99.5055 260.97 99.4275 260.94 99.3548C260.91 99.2822 260.865 99.2162 260.809 99.1606C260.753 99.1051 260.687 99.0612 260.614 99.0313C260.541 99.0014 260.463 98.9861 260.384 98.9864L252.584 99.0136C252.505 99.0139 252.428 99.0297 252.355 99.0601C252.282 99.0905 252.216 99.1349 252.161 99.1908C252.105 99.2467 252.061 99.313 252.031 99.3859C252.001 99.4588 251.986 99.5369 251.986 99.6157L252.014 107.416C252.014 107.494 252.03 107.572 252.06 107.645C252.09 107.718 252.135 107.784 252.191 107.839C252.247 107.895 252.313 107.939 252.386 107.969C252.459 107.999 252.537 108.014 252.616 108.014L260.416 107.986C260.495 107.986 260.572 107.97 260.645 107.94C260.718 107.91 260.784 107.865 260.839 107.809C260.895 107.753 260.939 107.687 260.969 107.614C260.999 107.541 261.014 107.463 261.014 107.384L260.986 99.5843Z" fill="white"/>
<path d="M284.012 110.567C284.012 110.678 283.968 110.785 283.89 110.864C283.811 110.943 283.704 110.987 283.593 110.988L269.433 111.012C269.322 111.012 269.215 110.968 269.136 110.89C269.057 110.811 269.013 110.704 269.012 110.593L268.988 96.4331C268.988 96.3217 269.032 96.2148 269.11 96.1359C269.189 96.057 269.296 96.0126 269.407 96.0124L283.567 95.9877C283.678 95.9875 283.785 96.0316 283.864 96.1102C283.943 96.1888 283.987 96.2955 283.988 96.4069L284.012 110.567ZM280.986 99.5843C280.986 99.5055 280.97 99.4275 280.94 99.3548C280.91 99.2822 280.865 99.2162 280.809 99.1606C280.753 99.1051 280.687 99.0612 280.614 99.0313C280.541 99.0014 280.463 98.9861 280.384 98.9864L272.584 99.0136C272.505 99.0139 272.428 99.0297 272.355 99.0601C272.282 99.0905 272.216 99.1349 272.161 99.1908C272.105 99.2467 272.061 99.313 272.031 99.3859C272.001 99.4588 271.986 99.5369 271.986 99.6157L272.014 107.416C272.014 107.494 272.03 107.572 272.06 107.645C272.09 107.718 272.135 107.784 272.191 107.839C272.247 107.895 272.313 107.939 272.386 107.969C272.459 107.999 272.537 108.014 272.616 108.014L280.416 107.986C280.495 107.986 280.572 107.97 280.645 107.94C280.718 107.91 280.784 107.865 280.839 107.809C280.895 107.753 280.939 107.687 280.969 107.614C280.999 107.541 281.014 107.463 281.014 107.384L280.986 99.5843Z" fill="white"/>
<path d="M260.384 98.9864L252.584 99.0136C252.253 99.0148 251.985 99.2844 251.986 99.6157L252.014 107.416C252.015 107.747 252.284 108.015 252.616 108.014L260.416 107.986C260.747 107.985 261.015 107.716 261.014 107.384L260.986 99.5843C260.985 99.2529 260.716 98.9853 260.384 98.9864Z" fill="#EE1D23"/>
<path d="M280.384 98.9864L272.584 99.0136C272.253 99.0148 271.985 99.2844 271.986 99.6157L272.014 107.416C272.015 107.747 272.284 108.015 272.616 108.014L280.416 107.986C280.747 107.985 281.015 107.716 281.014 107.384L280.986 99.5843C280.985 99.2529 280.716 98.9853 280.384 98.9864Z" fill="#EE1D23"/>
<path d="M263.988 129.563C263.988 129.622 263.976 129.681 263.953 129.735C263.93 129.79 263.897 129.839 263.855 129.881C263.813 129.923 263.764 129.956 263.709 129.978C263.655 130.001 263.596 130.012 263.537 130.012L249.437 129.988C249.378 129.988 249.319 129.976 249.265 129.953C249.21 129.93 249.161 129.897 249.119 129.855C249.077 129.813 249.044 129.764 249.022 129.709C248.999 129.655 248.988 129.596 248.988 129.537L249.012 115.437C249.012 115.378 249.024 115.319 249.047 115.265C249.07 115.21 249.103 115.161 249.145 115.119C249.187 115.077 249.236 115.044 249.291 115.022C249.345 114.999 249.404 114.988 249.463 114.988L263.563 115.012C263.622 115.012 263.681 115.024 263.735 115.047C263.79 115.07 263.839 115.103 263.881 115.145C263.923 115.187 263.956 115.236 263.978 115.291C264.001 115.345 264.012 115.404 264.012 115.463L263.988 129.563ZM260.986 118.584C260.986 118.506 260.97 118.428 260.94 118.355C260.91 118.282 260.865 118.216 260.809 118.161C260.753 118.105 260.687 118.061 260.614 118.031C260.541 118.001 260.463 117.986 260.384 117.986L252.584 118.014C252.505 118.014 252.428 118.03 252.355 118.06C252.282 118.09 252.216 118.135 252.161 118.191C252.105 118.247 252.061 118.313 252.031 118.386C252.001 118.459 251.986 118.537 251.986 118.616L252.014 126.416C252.014 126.494 252.03 126.572 252.06 126.645C252.09 126.718 252.135 126.784 252.191 126.839C252.247 126.895 252.313 126.939 252.386 126.969C252.459 126.999 252.537 127.014 252.616 127.014L260.416 126.986C260.495 126.986 260.572 126.97 260.645 126.94C260.718 126.91 260.784 126.865 260.839 126.809C260.895 126.753 260.939 126.687 260.969 126.614C260.999 126.541 261.014 126.463 261.014 126.384L260.986 118.584Z" fill="white"/>
<path d="M283.987 129.643C283.987 129.741 283.948 129.835 283.879 129.904C283.809 129.974 283.715 130.013 283.617 130.012L269.357 129.988C269.259 129.987 269.165 129.948 269.096 129.879C269.026 129.809 268.987 129.715 268.988 129.617L269.013 115.357C269.013 115.259 269.052 115.165 269.121 115.096C269.191 115.026 269.285 114.987 269.383 114.988L283.643 115.012C283.741 115.013 283.835 115.052 283.904 115.121C283.974 115.191 284.013 115.285 284.012 115.383L283.987 129.643ZM280.986 118.584C280.986 118.506 280.97 118.428 280.94 118.355C280.91 118.282 280.865 118.216 280.809 118.161C280.753 118.105 280.687 118.061 280.614 118.031C280.541 118.001 280.463 117.986 280.384 117.986L272.584 118.014C272.505 118.014 272.428 118.03 272.355 118.06C272.282 118.09 272.216 118.135 272.161 118.191C272.105 118.247 272.061 118.313 272.031 118.386C272.001 118.459 271.986 118.537 271.986 118.616L272.014 126.416C272.014 126.494 272.03 126.572 272.06 126.645C272.09 126.718 272.135 126.784 272.191 126.839C272.247 126.895 272.313 126.939 272.386 126.969C272.459 126.999 272.537 127.014 272.616 127.014L280.416 126.986C280.495 126.986 280.572 126.97 280.645 126.94C280.718 126.91 280.784 126.865 280.839 126.809C280.895 126.753 280.939 126.687 280.969 126.614C280.999 126.541 281.014 126.463 281.014 126.384L280.986 118.584Z" fill="white"/>
<path d="M260.384 117.986L252.584 118.014C252.253 118.015 251.985 118.284 251.986 118.616L252.014 126.416C252.015 126.747 252.284 127.015 252.616 127.014L260.416 126.986C260.747 126.985 261.015 126.716 261.014 126.384L260.986 118.584C260.985 118.253 260.716 117.985 260.384 117.986Z" fill="#EE1D23"/>
<path d="M280.384 117.986L272.584 118.014C272.253 118.015 271.985 118.284 271.986 118.616L272.014 126.416C272.015 126.747 272.284 127.015 272.616 127.014L280.416 126.986C280.747 126.985 281.015 126.716 281.014 126.384L280.986 118.584C280.985 118.253 280.716 117.985 280.384 117.986Z" fill="#EE1D23"/>
<path d="M45.15 143.25C50.2752 143.25 54.43 139.095 54.43 133.97C54.43 128.845 50.2752 124.69 45.15 124.69C40.0248 124.69 35.87 128.845 35.87 133.97C35.87 139.095 40.0248 143.25 45.15 143.25Z" fill="white"/>
<path d="M194.25 155.3C206.96 167.17 208.01 187.32 198.36 201.64C190.647 213.093 179.527 218.687 165 218.42C150.11 218.15 138.12 211.59 131.78 197.99C123.56 180.36 130.69 156.51 149.87 148.68C163.94 142.94 182.73 144.53 194.25 155.3ZM172.81 155.94C162.94 147.91 153.59 157.7 151.73 167.24C149.48 178.75 149.46 199.65 159.76 207.59C162.693 209.85 165.713 210.823 168.82 210.51C182.86 209.11 183.13 185.45 181.74 175.94C180.6 168.05 178.74 160.76 172.81 155.94Z" fill="white"/>
<path d="M393.26 207.94C393.26 211.2 397.04 213.21 399.81 213.42C400.086 213.438 400.351 213.534 400.576 213.696C400.801 213.859 400.975 214.082 401.08 214.34C401.413 215.153 401.327 215.79 400.82 216.25C400.533 216.517 400.07 216.657 399.43 216.67C388.47 216.93 377.57 216.95 366.73 216.73C366.497 216.727 366.269 216.666 366.066 216.553C365.863 216.439 365.693 216.277 365.57 216.08C365.003 215.18 365.047 214.453 365.7 213.9C366.007 213.647 366.577 213.463 367.41 213.35C372.51 212.68 373.29 209.16 373.26 204.44C373.167 189.533 373.267 174.563 373.56 159.53C373.567 159.232 373.514 158.936 373.404 158.659C373.294 158.382 373.13 158.13 372.921 157.917C372.712 157.705 372.463 157.536 372.188 157.421C371.913 157.307 371.618 157.249 371.32 157.25C365.44 157.26 355.27 155.29 353.96 163.87C353.936 164.089 353.868 164.302 353.762 164.495C353.656 164.688 353.512 164.859 353.34 164.997C353.168 165.135 352.97 165.237 352.758 165.299C352.546 165.36 352.324 165.379 352.105 165.355C351.886 165.331 351.673 165.263 351.48 165.157C351.287 165.051 351.116 164.907 350.978 164.735C350.84 164.563 350.738 164.365 350.676 164.153C350.615 163.941 350.596 163.719 350.62 163.5L351.72 147.41C351.741 147.104 351.835 146.807 351.993 146.545C352.151 146.282 352.37 146.061 352.63 145.899C352.89 145.738 353.184 145.641 353.489 145.617C353.793 145.593 354.099 145.642 354.38 145.76C356.027 146.447 357.84 146.797 359.82 146.81C385.34 146.983 401.4 147.043 408 146.99C410.38 146.97 416.92 144.14 416.61 148.76C416.277 153.593 415.897 158.503 415.47 163.49C415.448 163.741 415.366 163.983 415.231 164.195C415.096 164.408 414.912 164.585 414.695 164.711C414.477 164.838 414.232 164.91 413.981 164.922C413.729 164.934 413.479 164.885 413.25 164.78C412.617 164.487 412.26 163.907 412.18 163.04C411.38 154.78 400.79 157.23 395.14 157.26C394.734 157.26 394.339 157.392 394.014 157.635C393.688 157.878 393.448 158.22 393.33 158.61C392.67 160.82 393.23 163.16 393.23 164.77C393.25 179.157 393.26 193.547 393.26 207.94Z" fill="white"/>
<path d="M93.04 206.24C93.012 206.292 92.9977 206.351 92.9984 206.41C92.9992 206.469 93.015 206.527 93.0443 206.577C93.0736 206.628 93.1154 206.669 93.1655 206.698C93.2157 206.727 93.2724 206.741 93.33 206.74C100.21 206.813 107.08 206.7 113.94 206.4C118.14 206.21 119.52 201.66 120.56 197.53C120.583 197.434 120.625 197.344 120.684 197.266C120.743 197.187 120.817 197.121 120.902 197.071C120.987 197.022 121.081 196.99 121.179 196.978C121.276 196.965 121.375 196.973 121.47 197L123.54 197.58C123.677 197.619 123.796 197.706 123.877 197.827C123.957 197.947 123.994 198.093 123.98 198.24L122.46 213.3C122.353 214.346 121.858 215.313 121.074 216.013C120.289 216.712 119.271 217.093 118.22 217.08C102.52 216.847 86.6334 216.75 70.56 216.79C65.84 216.8 68.33 212.29 69.53 210.05C78.7767 192.763 87.9833 175.563 97.15 158.45C97.272 158.223 97.3335 157.969 97.3285 157.711C97.3235 157.453 97.2523 157.201 97.1217 156.979C96.9911 156.757 96.8054 156.573 96.5827 156.443C96.36 156.314 96.1076 156.244 95.85 156.24C90.4434 156.153 85.1034 156.36 79.83 156.86C75.85 157.23 74.82 160.88 73.74 163.96C73.6366 164.258 73.4423 164.516 73.1846 164.699C72.9268 164.881 72.6184 164.977 72.3028 164.975C71.9873 164.973 71.6803 164.872 71.4251 164.686C71.1699 164.501 70.9793 164.24 70.88 163.94C70.01 161.39 72.43 151.23 72.97 148.14C73.0394 147.731 73.2543 147.361 73.5756 147.096C73.8968 146.832 74.3029 146.691 74.72 146.7C89.3867 147.04 103.98 147.153 118.5 147.04C120.073 147.027 121.347 147.233 122.32 147.66C122.522 147.75 122.703 147.88 122.853 148.043C123.003 148.206 123.117 148.397 123.189 148.605C123.262 148.814 123.29 149.034 123.273 149.254C123.256 149.473 123.194 149.686 123.09 149.88L93.04 206.24Z" fill="white"/>
<path d="M281.29 217.05C280.263 217.057 279.687 216.553 279.56 215.54C279.38 214.05 280.13 213.58 281.52 213.42C286.5 212.83 288.51 212.11 288.63 206.57C289.063 186.937 289.06 170.48 288.62 157.2C288.48 153.08 287.13 150.21 282.63 150.49C282.26 150.51 281.894 150.411 281.586 150.207C281.278 150.004 281.044 149.707 280.92 149.36C280.547 148.333 280.73 147.64 281.47 147.28C281.79 147.12 282.323 147.033 283.07 147.02C297.37 146.8 311.66 145.99 325.94 147.49C337.58 148.71 348.31 156.02 344.26 169.17C342.41 175.19 338.04 178.43 333.16 181.9C332.833 182.133 332.763 182.43 332.95 182.79C339.41 195.03 346.33 210.4 358.7 213.63C359.018 213.711 359.297 213.9 359.491 214.164C359.684 214.429 359.779 214.753 359.76 215.08C359.7 216.16 359.113 216.8 358 217C334.32 221.15 323.56 209.95 316.01 189.44C315.41 187.81 313.94 186.37 312.36 186.13C312.033 186.079 311.731 185.927 311.495 185.695C311.26 185.464 311.103 185.164 311.046 184.838C310.99 184.512 311.037 184.177 311.182 183.88C311.326 183.582 311.559 183.338 311.85 183.18C319.59 179.04 325.77 176.85 324.94 166.29C324.273 157.77 319.717 153.643 311.27 153.91C308.87 153.98 308.29 155.71 308.28 157.9C308.22 174.08 308.243 190.257 308.35 206.43C308.37 209.603 309.72 211.777 312.4 212.95C313.33 213.36 314.88 213.07 315.64 214.34C315.789 214.592 315.869 214.879 315.872 215.173C315.876 215.466 315.801 215.755 315.657 216.01C315.514 216.265 315.305 216.478 315.053 216.628C314.8 216.777 314.513 216.857 314.22 216.86L281.29 217.05Z" fill="white"/>
<path d="M61.82 147.07C61.9837 147.077 62.1429 147.129 62.28 147.22C63.0667 147.78 63.3567 148.417 63.15 149.13C62.64 150.83 60.23 150.32 58.97 150.74C56.23 151.66 54.84 153.603 54.8 156.57C54.6867 164.41 54.68 180.153 54.78 203.8C54.8 208.98 55.52 213.37 61.54 213.32C61.8599 213.317 62.1717 213.424 62.4243 213.624C62.6769 213.824 62.8552 214.104 62.93 214.42C63.2833 215.953 62.7233 216.73 61.25 216.75C50.31 216.923 39.4667 216.917 28.72 216.73C28.3882 216.724 28.0659 216.617 27.7961 216.422C27.5263 216.227 27.3218 215.954 27.21 215.64C26.9833 214.987 27.12 214.38 27.62 213.82C27.7275 213.697 27.8592 213.597 28.007 213.527C28.1549 213.456 28.3158 213.417 28.48 213.41C33.06 213.263 35.3567 210.793 35.37 206C35.4433 179.767 35.3733 162.913 35.16 155.44C35.03 151.26 31.32 150.93 28.11 150.1C27.7524 150.01 27.444 149.784 27.2499 149.471C27.0558 149.157 26.9913 148.78 27.07 148.42C27.2433 147.613 27.8267 147.2 28.82 147.18C39.8 146.927 50.8 146.89 61.82 147.07Z" fill="white"/>
<path d="M249.64 211.52L245.37 200.69C245.13 200.077 244.68 199.767 244.02 199.76L224 199.68C223.827 199.68 223.657 199.73 223.512 199.824C223.366 199.918 223.251 200.052 223.18 200.21L218.07 211.4C217.97 211.62 217.927 211.862 217.943 212.103C217.959 212.344 218.034 212.577 218.162 212.781C218.29 212.986 218.467 213.155 218.676 213.273C218.885 213.391 219.12 213.456 219.36 213.46L226.44 213.62C226.67 213.626 226.891 213.706 227.07 213.849C227.249 213.992 227.375 214.189 227.43 214.41C227.65 215.297 227.5 215.937 226.98 216.33C226.68 216.557 226.167 216.683 225.44 216.71C218.04 216.983 210.573 216.967 203.04 216.66C202.796 216.65 202.56 216.571 202.361 216.43C202.162 216.29 202.009 216.095 201.92 215.87C201.587 215.037 201.657 214.407 202.13 213.98C202.357 213.773 202.863 213.597 203.65 213.45C207.043 212.823 209.327 211.16 210.5 208.46C214.207 199.94 221.94 180.78 233.7 150.98C234.5 148.947 236.13 147.677 238.59 147.17C244.82 145.88 245.76 149.45 247.88 154.68C254.84 171.887 261.803 189.087 268.77 206.28C270.28 210 272.34 212.56 276.18 213.27C276.422 213.314 276.652 213.408 276.856 213.545C277.06 213.683 277.233 213.862 277.365 214.071C277.496 214.279 277.583 214.513 277.62 214.757C277.657 215.002 277.644 215.251 277.58 215.49C277.34 216.39 276.793 216.843 275.94 216.85C266.087 216.977 256.353 217.03 246.74 217.01C246.224 217.004 245.733 216.811 245.36 216.47C244.54 215.737 244.41 214.933 244.97 214.06C245.177 213.74 245.47 213.573 245.85 213.56L248.36 213.47C248.588 213.462 248.811 213.399 249.01 213.287C249.209 213.175 249.378 213.017 249.504 212.826C249.629 212.635 249.707 212.417 249.731 212.189C249.754 211.962 249.723 211.733 249.64 211.52ZM228.34 188.59C228.231 188.825 228.182 189.084 228.197 189.342C228.212 189.601 228.291 189.852 228.426 190.073C228.562 190.294 228.75 190.477 228.974 190.608C229.198 190.738 229.451 190.811 229.71 190.82L239.47 191.18C239.729 191.19 239.986 191.136 240.218 191.022C240.451 190.909 240.652 190.74 240.803 190.53C240.954 190.32 241.052 190.076 241.086 189.82C241.12 189.563 241.091 189.302 241 189.06L236.54 177.25C236.431 176.961 236.239 176.711 235.988 176.531C235.738 176.351 235.44 176.249 235.131 176.237C234.823 176.225 234.518 176.305 234.255 176.465C233.991 176.626 233.781 176.861 233.65 177.14L228.34 188.59Z" fill="white"/>
<path d="M422.27 217.01C422.088 217.01 421.909 216.951 421.76 216.84C420.56 215.947 420.393 214.933 421.26 213.8C421.35 213.682 421.466 213.585 421.6 213.518C421.733 213.45 421.88 213.413 422.03 213.41C426.42 213.4 428.65 210.98 428.65 206.54C428.63 190.113 428.607 173.7 428.58 157.3C428.58 153.54 427.33 150.83 423.4 150.51C422.48 150.437 421.903 150.35 421.67 150.25C420.87 149.91 420.583 149.29 420.81 148.39C420.91 147.992 421.14 147.639 421.462 147.387C421.785 147.136 422.182 146.999 422.59 147H468.31C468.607 147 468.9 147.062 469.171 147.182C469.442 147.302 469.685 147.477 469.885 147.697C470.084 147.916 470.236 148.174 470.33 148.456C470.424 148.737 470.458 149.035 470.43 149.33L469.32 161.25C469.303 161.436 469.243 161.616 469.145 161.776C469.047 161.935 468.913 162.07 468.754 162.168C468.595 162.267 468.415 162.328 468.229 162.345C468.043 162.363 467.855 162.337 467.68 162.27L466.88 161.97C466.715 161.907 466.572 161.8 466.466 161.66C466.36 161.52 466.295 161.354 466.28 161.18C465.69 154.79 457 156.14 452.51 155.96C448.21 155.79 447.88 159.11 448.15 162.63C448.36 165.45 447.41 173.47 451.16 173.94C454.98 174.41 462.87 174.52 464.17 169.64C464.258 169.307 464.464 169.018 464.75 168.827C465.035 168.635 465.381 168.555 465.723 168.6C466.065 168.645 466.38 168.813 466.609 169.072C466.838 169.332 466.967 169.665 466.97 170.01L467.01 186.21C467.01 186.492 466.925 186.769 466.768 187.003C466.611 187.238 466.388 187.421 466.127 187.529C465.866 187.637 465.579 187.665 465.302 187.61C465.025 187.555 464.77 187.42 464.57 187.22C460.543 183.167 455.617 181.583 449.79 182.47C449.391 182.532 449.027 182.733 448.763 183.037C448.499 183.341 448.353 183.729 448.35 184.13L448.23 204.87C448.229 205.114 448.275 205.356 448.368 205.583C448.46 205.809 448.596 206.014 448.768 206.188C448.939 206.362 449.144 206.5 449.369 206.595C449.594 206.689 449.836 206.739 450.08 206.74C454.473 206.76 458.947 206.76 463.5 206.74C468.58 206.72 470.24 203.09 471.75 199.3C471.837 199.081 471.975 198.886 472.153 198.731C472.331 198.576 472.544 198.466 472.774 198.411C473.004 198.355 473.244 198.355 473.475 198.41C473.706 198.466 473.92 198.576 474.1 198.73C474.88 199.403 475.203 200.247 475.07 201.26C474.463 205.827 473.807 210.207 473.1 214.4C472.982 215.086 472.626 215.708 472.094 216.158C471.562 216.608 470.888 216.856 470.19 216.86L422.27 217.01Z" fill="white"/>
</svg>
